<svg xmlns="http://www.w3.org/2000/svg" ><svg x="0" y="0" width="10" height="10" viewBox="0 0 230 230">
  <defs>
    <style>
      .wall { fill: #242424; stroke: #000000; }
    </style>
  </defs>
  <rect class="wall" width="230" height="230"/>
</svg>
<svg x="10" y="0" width="10" height="10" viewBox="0 0 230 230">
  <defs>
    <style>
      .wall { fill: #242424; stroke: #000000; }
    </style>
  </defs>
  <rect class="wall" width="230" height="230"/>
</svg>
<svg x="20" y="0" width="10" height="10" viewBox="0 0 230 230">
  <defs>
    <style>
      .wall { fill: #242424; stroke: #000000; }
    </style>
  </defs>
  <rect class="wall" width="230" height="230"/>
</svg>
<svg x="30" y="0" width="10" height="10" viewBox="0 0 230 230">
  <defs>
    <style>
      .wall { fill: #242424; stroke: #000000; }
    </style>
  </defs>
  <rect class="wall" width="230" height="230"/>
</svg>
<svg x="40" y="0" width="10" height="10" viewBox="0 0 230 230">
  <defs>
    <style>
      .wall { fill: #242424; stroke: #000000; }
    </style>
  </defs>
  <rect class="wall" width="230" height="230"/>
</svg>
<svg x="50" y="0" width="10" height="10" viewBox="0 0 230 230">
  <defs>
    <style>
      .wall { fill: #242424; stroke: #000000; }
    </style>
  </defs>
  <rect class="wall" width="230" height="230"/>
</svg>
<svg x="60" y="0" width="10" height="10" viewBox="0 0 230 230">
  <defs>
    <style>
      .wall { fill: #242424; stroke: #000000; }
    </style>
  </defs>
  <rect class="wall" width="230" height="230"/>
</svg>
<svg x="70" y="0" width="10" height="10" viewBox="0 0 230 230">
  <defs>
    <style>
      .wall { fill: #242424; stroke: #000000; }
    </style>
  </defs>
  <rect class="wall" width="230" height="230"/>
</svg>
<svg x="80" y="0" width="10" height="10" viewBox="0 0 230 230">
  <defs>
    <style>
      .wall { fill: #242424; stroke: #000000; }
    </style>
  </defs>
  <rect class="wall" width="230" height="230"/>
</svg>
<svg x="90" y="0" width="10" height="10" viewBox="0 0 230 230">
  <defs>
    <style>
      .wall { fill: #242424; stroke: #000000; }
    </style>
  </defs>
  <rect class="wall" width="230" height="230"/>
</svg>
<svg x="100" y="0" width="10" height="10" viewBox="0 0 230 230">
  <defs>
    <style>
      .wall { fill: #242424; stroke: #000000; }
    </style>
  </defs>
  <rect class="wall" width="230" height="230"/>
</svg>
<svg x="110" y="0" width="10" height="10" viewBox="0 0 230 230">
  <defs>
    <style>
      .wall { fill: #242424; stroke: #000000; }
    </style>
  </defs>
  <rect class="wall" width="230" height="230"/>
</svg>
<svg x="120" y="0" width="10" height="10" viewBox="0 0 230 230">
  <defs>
    <style>
      .wall { fill: #242424; stroke: #000000; }
    </style>
  </defs>
  <rect class="wall" width="230" height="230"/>
</svg>
<svg x="130" y="0" width="10" height="10" viewBox="0 0 230 230">
  <defs>
    <style>
      .wall { fill: #242424; stroke: #000000; }
    </style>
  </defs>
  <rect class="wall" width="230" height="230"/>
</svg>
<svg x="140" y="0" width="10" height="10" viewBox="0 0 230 230">
  <defs>
    <style>
      .wall { fill: #242424; stroke: #000000; }
    </style>
  </defs>
  <rect class="wall" width="230" height="230"/>
</svg>
<svg x="0" y="10" width="10" height="10" viewBox="0 0 230 230">
  <defs>
    <style>
      .wall { fill: #242424; stroke: #000000; }
    </style>
  </defs>
  <rect class="wall" width="230" height="230"/>
</svg>
<svg x="10" y="10" width="10" height="10" viewBox="0 0 230 230">
  <defs>
    <style>
      .free-1 { fill: #bfbfbf; stroke: #000000; }
    </style>
  </defs>
  <rect class="free-1" width="230" height="230"/>
</svg>
<svg x="20" y="10" width="10" height="10" viewBox="0 0 230 230">
  <defs>
    <style>
      .free-1 { fill: #bfbfbf; stroke: #000000; }
    </style>
  </defs>
  <rect class="free-1" width="230" height="230"/>
</svg>
<svg x="30" y="10" width="10" height="10" viewBox="0 0 230 230">
  <defs>
    <style>
      .wall { fill: #242424; stroke: #000000; }
    </style>
  </defs>
  <rect class="wall" width="230" height="230"/>
</svg>
<svg x="40" y="10" width="10" height="10" viewBox="0 0 230 230">
  <defs>
    <style>
      .free-1 { fill: #bfbfbf; stroke: #000000; }
    </style>
  </defs>
  <rect class="free-1" width="230" height="230"/>
</svg>
<svg x="50" y="10" width="10" height="10" viewBox="0 0 230 230">
  <defs>
    <style>
      .free-1 { fill: #bfbfbf; stroke: #000000; }
    </style>
  </defs>
  <rect class="free-1" width="230" height="230"/>
</svg>
<svg x="60" y="10" width="10" height="10" viewBox="0 0 230 230">
  <defs>
    <style>
      .free-1 { fill: #bfbfbf; stroke: #000000; }
    </style>
  </defs>
  <rect class="free-1" width="230" height="230"/>
</svg>
<svg x="70" y="10" width="10" height="10" viewBox="0 0 230 230">
  <defs>
    <style>
      .wall { fill: #242424; stroke: #000000; }
    </style>
  </defs>
  <rect class="wall" width="230" height="230"/>
</svg>
<svg x="80" y="10" width="10" height="10" viewBox="0 0 230 230">
  <defs>
    <style>
      .wall { fill: #242424; stroke: #000000; }
    </style>
  </defs>
  <rect class="wall" width="230" height="230"/>
</svg>
<svg x="90" y="10" width="10" height="10" viewBox="0 0 230 230">
  <defs>
    <style>
      .wall { fill: #242424; stroke: #000000; }
    </style>
  </defs>
  <rect class="wall" width="230" height="230"/>
</svg>
<svg x="100" y="10" width="10" height="10" viewBox="0 0 230 230">
  <defs>
    <style>
      .free-1 { fill: #bfbfbf; stroke: #000000; }
    </style>
  </defs>
  <rect class="free-1" width="230" height="230"/>
</svg>
<svg x="110" y="10" width="10" height="10" viewBox="0 0 230 230">
  <defs>
    <style>
      .free-1 { fill: #bfbfbf; stroke: #000000; }
    </style>
  </defs>
  <rect class="free-1" width="230" height="230"/>
</svg>
<svg x="120" y="10" width="10" height="10" viewBox="0 0 230 230">
  <defs>
    <style>
      .wall { fill: #242424; stroke: #000000; }
    </style>
  </defs>
  <rect class="wall" width="230" height="230"/>
</svg>
<svg x="130" y="10" width="10" height="10" viewBox="0 0 230 230">
  <defs>
    <style>
      .wall { fill: #242424; stroke: #000000; }
    </style>
  </defs>
  <rect class="wall" width="230" height="230"/>
</svg>
<svg x="140" y="10" width="10" height="10" viewBox="0 0 230 230">
  <defs>
    <style>
      .wall { fill: #242424; stroke: #000000; }
    </style>
  </defs>
  <rect class="wall" width="230" height="230"/>
</svg>
<svg x="0" y="20" width="10" height="10" viewBox="0 0 230 230">
  <defs>
    <style>
      .wall { fill: #242424; stroke: #000000; }
    </style>
  </defs>
  <rect class="wall" width="230" height="230"/>
</svg>
<svg x="10" y="20" width="10" height="10" viewBox="0 0 230 230">
  <defs>
    <style>
      .free-1 { fill: #bfbfbf; stroke: #000000; }
    </style>
  </defs>
  <rect class="free-1" width="230" height="230"/>
</svg>
<svg x="20" y="20" width="10" height="10" viewBox="0 0 230 230">
  <defs>
    <style>
      .wall { fill: #242424; stroke: #000000; }
    </style>
  </defs>
  <rect class="wall" width="230" height="230"/>
</svg>
<svg x="30" y="20" width="10" height="10" viewBox="0 0 230 230">
  <defs>
    <style>
      .wall { fill: #242424; stroke: #000000; }
    </style>
  </defs>
  <rect class="wall" width="230" height="230"/>
</svg>
<svg x="40" y="20" width="10" height="10" viewBox="0 0 230 230">
  <defs>
    <style>
      .wall { fill: #242424; stroke: #000000; }
    </style>
  </defs>
  <rect class="wall" width="230" height="230"/>
</svg>
<svg x="50" y="20" width="10" height="10" viewBox="0 0 230 230">
  <defs>
    <style>
      .wall { fill: #242424; stroke: #000000; }
    </style>
  </defs>
  <rect class="wall" width="230" height="230"/>
</svg>
<svg x="60" y="20" width="10" height="10" viewBox="0 0 230 230">
  <defs>
    <style>
      .hero { fill:#169400; stroke: #000000; }
    </style>
  </defs>
  <rect class="hero" width="230" height="230"/>
</svg>
<svg x="70" y="20" width="10" height="10" viewBox="0 0 230 230">
  <defs>
    <style>
      .enemy { fill: #bd0000; stroke: #000000; }
    </style>
  </defs>
  <rect class="enemy" width="230" height="230"/>
</svg>
<svg x="80" y="20" width="10" height="10" viewBox="0 0 230 230">
  <defs>
    <style>
      .wall { fill: #242424; stroke: #000000; }
    </style>
  </defs>
  <rect class="wall" width="230" height="230"/>
</svg>
<svg x="90" y="20" width="10" height="10" viewBox="0 0 230 230">
  <defs>
    <style>
      .wall { fill: #242424; stroke: #000000; }
    </style>
  </defs>
  <rect class="wall" width="230" height="230"/>
</svg>
<svg x="100" y="20" width="10" height="10" viewBox="0 0 230 230">
  <defs>
    <style>
      .free-1 { fill: #bfbfbf; stroke: #000000; }
    </style>
  </defs>
  <rect class="free-1" width="230" height="230"/>
</svg>
<svg x="110" y="20" width="10" height="10" viewBox="0 0 230 230">
  <defs>
    <style>
      .free-1 { fill: #bfbfbf; stroke: #000000; }
    </style>
  </defs>
  <rect class="free-1" width="230" height="230"/>
</svg>
<svg x="120" y="20" width="10" height="10" viewBox="0 0 230 230">
  <defs>
    <style>
      .wall { fill: #242424; stroke: #000000; }
    </style>
  </defs>
  <rect class="wall" width="230" height="230"/>
</svg>
<svg x="130" y="20" width="10" height="10" viewBox="0 0 230 230">
  <defs>
    <style>
      .wall { fill: #242424; stroke: #000000; }
    </style>
  </defs>
  <rect class="wall" width="230" height="230"/>
</svg>
<svg x="140" y="20" width="10" height="10" viewBox="0 0 230 230">
  <defs>
    <style>
      .wall { fill: #242424; stroke: #000000; }
    </style>
  </defs>
  <rect class="wall" width="230" height="230"/>
</svg>
<svg x="0" y="30" width="10" height="10" viewBox="0 0 230 230">
  <defs>
    <style>
      .wall { fill: #242424; stroke: #000000; }
    </style>
  </defs>
  <rect class="wall" width="230" height="230"/>
</svg>
<svg x="10" y="30" width="10" height="10" viewBox="0 0 230 230">
  <defs>
    <style>
      .free-1 { fill: #bfbfbf; stroke: #000000; }
    </style>
  </defs>
  <rect class="free-1" width="230" height="230"/>
</svg>
<svg x="20" y="30" width="10" height="10" viewBox="0 0 230 230">
  <defs>
    <style>
      .free-1 { fill: #bfbfbf; stroke: #000000; }
    </style>
  </defs>
  <rect class="free-1" width="230" height="230"/>
</svg>
<svg x="30" y="30" width="10" height="10" viewBox="0 0 230 230">
  <defs>
    <style>
      .free-1 { fill: #bfbfbf; stroke: #000000; }
    </style>
  </defs>
  <rect class="free-1" width="230" height="230"/>
</svg>
<svg x="40" y="30" width="10" height="10" viewBox="0 0 230 230">
  <defs>
    <style>
      .wall { fill: #242424; stroke: #000000; }
    </style>
  </defs>
  <rect class="wall" width="230" height="230"/>
</svg>
<svg x="50" y="30" width="10" height="10" viewBox="0 0 230 230">
  <defs>
    <style>
      .free-1 { fill: #bfbfbf; stroke: #000000; }
    </style>
  </defs>
  <rect class="free-1" width="230" height="230"/>
</svg>
<svg x="60" y="30" width="10" height="10" viewBox="0 0 230 230">
  <defs>
    <style>
      .free-1 { fill: #bfbfbf; stroke: #000000; }
    </style>
  </defs>
  <rect class="free-1" width="230" height="230"/>
</svg>
<svg x="70" y="30" width="10" height="10" viewBox="0 0 230 230">
  <defs>
    <style>
      .wall { fill: #242424; stroke: #000000; }
    </style>
  </defs>
  <rect class="wall" width="230" height="230"/>
</svg>
<svg x="80" y="30" width="10" height="10" viewBox="0 0 230 230">
  <defs>
    <style>
      .wall { fill: #242424; stroke: #000000; }
    </style>
  </defs>
  <rect class="wall" width="230" height="230"/>
</svg>
<svg x="90" y="30" width="10" height="10" viewBox="0 0 230 230">
  <defs>
    <style>
      .free-1 { fill: #bfbfbf; stroke: #000000; }
    </style>
  </defs>
  <rect class="free-1" width="230" height="230"/>
</svg>
<svg x="100" y="30" width="10" height="10" viewBox="0 0 230 230">
  <defs>
    <style>
      .free-1 { fill: #bfbfbf; stroke: #000000; }
    </style>
  </defs>
  <rect class="free-1" width="230" height="230"/>
</svg>
<svg x="110" y="30" width="10" height="10" viewBox="0 0 230 230">
  <defs>
    <style>
      .wall { fill: #242424; stroke: #000000; }
    </style>
  </defs>
  <rect class="wall" width="230" height="230"/>
</svg>
<svg x="120" y="30" width="10" height="10" viewBox="0 0 230 230">
  <defs>
    <style>
      .wall { fill: #242424; stroke: #000000; }
    </style>
  </defs>
  <rect class="wall" width="230" height="230"/>
</svg>
<svg x="130" y="30" width="10" height="10" viewBox="0 0 230 230">
  <defs>
    <style>
      .wall { fill: #242424; stroke: #000000; }
    </style>
  </defs>
  <rect class="wall" width="230" height="230"/>
</svg>
<svg x="140" y="30" width="10" height="10" viewBox="0 0 230 230">
  <defs>
    <style>
      .wall { fill: #242424; stroke: #000000; }
    </style>
  </defs>
  <rect class="wall" width="230" height="230"/>
</svg>
<svg x="0" y="40" width="10" height="10" viewBox="0 0 230 230">
  <defs>
    <style>
      .wall { fill: #242424; stroke: #000000; }
    </style>
  </defs>
  <rect class="wall" width="230" height="230"/>
</svg>
<svg x="10" y="40" width="10" height="10" viewBox="0 0 230 230">
  <defs>
    <style>
      .wall { fill: #242424; stroke: #000000; }
    </style>
  </defs>
  <rect class="wall" width="230" height="230"/>
</svg>
<svg x="20" y="40" width="10" height="10" viewBox="0 0 230 230">
  <defs>
    <style>
      .wall { fill: #242424; stroke: #000000; }
    </style>
  </defs>
  <rect class="wall" width="230" height="230"/>
</svg>
<svg x="30" y="40" width="10" height="10" viewBox="0 0 230 230">
  <defs>
    <style>
      .free-1 { fill: #bfbfbf; stroke: #000000; }
    </style>
  </defs>
  <rect class="free-1" width="230" height="230"/>
</svg>
<svg x="40" y="40" width="10" height="10" viewBox="0 0 230 230">
  <defs>
    <style>
      .wall { fill: #242424; stroke: #000000; }
    </style>
  </defs>
  <rect class="wall" width="230" height="230"/>
</svg>
<svg x="50" y="40" width="10" height="10" viewBox="0 0 230 230">
  <defs>
    <style>
      .free-1 { fill: #bfbfbf; stroke: #000000; }
    </style>
  </defs>
  <rect class="free-1" width="230" height="230"/>
</svg>
<svg x="60" y="40" width="10" height="10" viewBox="0 0 230 230">
  <defs>
    <style>
      .wall { fill: #242424; stroke: #000000; }
    </style>
  </defs>
  <rect class="wall" width="230" height="230"/>
</svg>
<svg x="70" y="40" width="10" height="10" viewBox="0 0 230 230">
  <defs>
    <style>
      .wall { fill: #242424; stroke: #000000; }
    </style>
  </defs>
  <rect class="wall" width="230" height="230"/>
</svg>
<svg x="80" y="40" width="10" height="10" viewBox="0 0 230 230">
  <defs>
    <style>
      .free-1 { fill: #bfbfbf; stroke: #000000; }
    </style>
  </defs>
  <rect class="free-1" width="230" height="230"/>
</svg>
<svg x="90" y="40" width="10" height="10" viewBox="0 0 230 230">
  <defs>
    <style>
      .free-1 { fill: #bfbfbf; stroke: #000000; }
    </style>
  </defs>
  <rect class="free-1" width="230" height="230"/>
</svg>
<svg x="100" y="40" width="10" height="10" viewBox="0 0 230 230">
  <defs>
    <style>
      .wall { fill: #242424; stroke: #000000; }
    </style>
  </defs>
  <rect class="wall" width="230" height="230"/>
</svg>
<svg x="110" y="40" width="10" height="10" viewBox="0 0 230 230">
  <defs>
    <style>
      .wall { fill: #242424; stroke: #000000; }
    </style>
  </defs>
  <rect class="wall" width="230" height="230"/>
</svg>
<svg x="120" y="40" width="10" height="10" viewBox="0 0 230 230">
  <defs>
    <style>
      .wall { fill: #242424; stroke: #000000; }
    </style>
  </defs>
  <rect class="wall" width="230" height="230"/>
</svg>
<svg x="130" y="40" width="10" height="10" viewBox="0 0 230 230">
  <defs>
    <style>
      .wall { fill: #242424; stroke: #000000; }
    </style>
  </defs>
  <rect class="wall" width="230" height="230"/>
</svg>
<svg x="140" y="40" width="10" height="10" viewBox="0 0 230 230">
  <defs>
    <style>
      .wall { fill: #242424; stroke: #000000; }
    </style>
  </defs>
  <rect class="wall" width="230" height="230"/>
</svg>
<svg x="0" y="50" width="10" height="10" viewBox="0 0 230 230">
  <defs>
    <style>
      .wall { fill: #242424; stroke: #000000; }
    </style>
  </defs>
  <rect class="wall" width="230" height="230"/>
</svg>
<svg x="10" y="50" width="10" height="10" viewBox="0 0 230 230">
  <defs>
    <style>
      .free-1 { fill: #bfbfbf; stroke: #000000; }
    </style>
  </defs>
  <rect class="free-1" width="230" height="230"/>
</svg>
<svg x="20" y="50" width="10" height="10" viewBox="0 0 230 230">
  <defs>
    <style>
      .free-1 { fill: #bfbfbf; stroke: #000000; }
    </style>
  </defs>
  <rect class="free-1" width="230" height="230"/>
</svg>
<svg x="30" y="50" width="10" height="10" viewBox="0 0 230 230">
  <defs>
    <style>
      .free-1 { fill: #bfbfbf; stroke: #000000; }
    </style>
  </defs>
  <rect class="free-1" width="230" height="230"/>
</svg>
<svg x="40" y="50" width="10" height="10" viewBox="0 0 230 230">
  <defs>
    <style>
      .free-1 { fill: #bfbfbf; stroke: #000000; }
    </style>
  </defs>
  <rect class="free-1" width="230" height="230"/>
</svg>
<svg x="50" y="50" width="10" height="10" viewBox="0 0 230 230">
  <defs>
    <style>
      .free-1 { fill: #bfbfbf; stroke: #000000; }
    </style>
  </defs>
  <rect class="free-1" width="230" height="230"/>
</svg>
<svg x="60" y="50" width="10" height="10" viewBox="0 0 230 230">
  <defs>
    <style>
      .free-1 { fill: #bfbfbf; stroke: #000000; }
    </style>
  </defs>
  <rect class="free-1" width="230" height="230"/>
</svg>
<svg x="70" y="50" width="10" height="10" viewBox="0 0 230 230">
  <defs>
    <style>
      .free-1 { fill: #bfbfbf; stroke: #000000; }
    </style>
  </defs>
  <rect class="free-1" width="230" height="230"/>
</svg>
<svg x="80" y="50" width="10" height="10" viewBox="0 0 230 230">
  <defs>
    <style>
      .free-1 { fill: #bfbfbf; stroke: #000000; }
    </style>
  </defs>
  <rect class="free-1" width="230" height="230"/>
</svg>
<svg x="90" y="50" width="10" height="10" viewBox="0 0 230 230">
  <defs>
    <style>
      .free-1 { fill: #bfbfbf; stroke: #000000; }
    </style>
  </defs>
  <rect class="free-1" width="230" height="230"/>
</svg>
<svg x="100" y="50" width="10" height="10" viewBox="0 0 230 230">
  <defs>
    <style>
      .wall { fill: #242424; stroke: #000000; }
    </style>
  </defs>
  <rect class="wall" width="230" height="230"/>
</svg>
<svg x="110" y="50" width="10" height="10" viewBox="0 0 230 230">
  <defs>
    <style>
      .wall { fill: #242424; stroke: #000000; }
    </style>
  </defs>
  <rect class="wall" width="230" height="230"/>
</svg>
<svg x="120" y="50" width="10" height="10" viewBox="0 0 230 230">
  <defs>
    <style>
      .wall { fill: #242424; stroke: #000000; }
    </style>
  </defs>
  <rect class="wall" width="230" height="230"/>
</svg>
<svg x="130" y="50" width="10" height="10" viewBox="0 0 230 230">
  <defs>
    <style>
      .wall { fill: #242424; stroke: #000000; }
    </style>
  </defs>
  <rect class="wall" width="230" height="230"/>
</svg>
<svg x="140" y="50" width="10" height="10" viewBox="0 0 230 230">
  <defs>
    <style>
      .wall { fill: #242424; stroke: #000000; }
    </style>
  </defs>
  <rect class="wall" width="230" height="230"/>
</svg>
<svg x="0" y="60" width="10" height="10" viewBox="0 0 230 230">
  <defs>
    <style>
      .wall { fill: #242424; stroke: #000000; }
    </style>
  </defs>
  <rect class="wall" width="230" height="230"/>
</svg>
<svg x="10" y="60" width="10" height="10" viewBox="0 0 230 230">
  <defs>
    <style>
      .wall { fill: #242424; stroke: #000000; }
    </style>
  </defs>
  <rect class="wall" width="230" height="230"/>
</svg>
<svg x="20" y="60" width="10" height="10" viewBox="0 0 230 230">
  <defs>
    <style>
      .wall { fill: #242424; stroke: #000000; }
    </style>
  </defs>
  <rect class="wall" width="230" height="230"/>
</svg>
<svg x="30" y="60" width="10" height="10" viewBox="0 0 230 230">
  <defs>
    <style>
      .wall { fill: #242424; stroke: #000000; }
    </style>
  </defs>
  <rect class="wall" width="230" height="230"/>
</svg>
<svg x="40" y="60" width="10" height="10" viewBox="0 0 230 230">
  <defs>
    <style>
      .wall { fill: #242424; stroke: #000000; }
    </style>
  </defs>
  <rect class="wall" width="230" height="230"/>
</svg>
<svg x="50" y="60" width="10" height="10" viewBox="0 0 230 230">
  <defs>
    <style>
      .wall { fill: #242424; stroke: #000000; }
    </style>
  </defs>
  <rect class="wall" width="230" height="230"/>
</svg>
<svg x="60" y="60" width="10" height="10" viewBox="0 0 230 230">
  <defs>
    <style>
      .wall { fill: #242424; stroke: #000000; }
    </style>
  </defs>
  <rect class="wall" width="230" height="230"/>
</svg>
<svg x="70" y="60" width="10" height="10" viewBox="0 0 230 230">
  <defs>
    <style>
      .wall { fill: #242424; stroke: #000000; }
    </style>
  </defs>
  <rect class="wall" width="230" height="230"/>
</svg>
<svg x="80" y="60" width="10" height="10" viewBox="0 0 230 230">
  <defs>
    <style>
      .wall { fill: #242424; stroke: #000000; }
    </style>
  </defs>
  <rect class="wall" width="230" height="230"/>
</svg>
<svg x="90" y="60" width="10" height="10" viewBox="0 0 230 230">
  <defs>
    <style>
      .wall { fill: #242424; stroke: #000000; }
    </style>
  </defs>
  <rect class="wall" width="230" height="230"/>
</svg>
<svg x="100" y="60" width="10" height="10" viewBox="0 0 230 230">
  <defs>
    <style>
      .wall { fill: #242424; stroke: #000000; }
    </style>
  </defs>
  <rect class="wall" width="230" height="230"/>
</svg>
<svg x="110" y="60" width="10" height="10" viewBox="0 0 230 230">
  <defs>
    <style>
      .wall { fill: #242424; stroke: #000000; }
    </style>
  </defs>
  <rect class="wall" width="230" height="230"/>
</svg>
<svg x="120" y="60" width="10" height="10" viewBox="0 0 230 230">
  <defs>
    <style>
      .wall { fill: #242424; stroke: #000000; }
    </style>
  </defs>
  <rect class="wall" width="230" height="230"/>
</svg>
<svg x="130" y="60" width="10" height="10" viewBox="0 0 230 230">
  <defs>
    <style>
      .wall { fill: #242424; stroke: #000000; }
    </style>
  </defs>
  <rect class="wall" width="230" height="230"/>
</svg>
<svg x="140" y="60" width="10" height="10" viewBox="0 0 230 230">
  <defs>
    <style>
      .wall { fill: #242424; stroke: #000000; }
    </style>
  </defs>
  <rect class="wall" width="230" height="230"/>
</svg>
</svg>